                                                                        S      1
,,,6H阀门,48HAutoCAD 2017 - 简体中文 (Simplified Chinese),62HAutodG      1
esk Translation Framework DWG producer (atf_dwg_producer),32,38,7,99,15,G      2
,1.,2,2HMM,1,0.08,15H20170820.103811,0.01,10000.,,7Hunknown,11,0,15H2017G      3
0820.101903;                                                            G      4
     186       1                       0                        00000000D      1
     186             -79       1       0                               0D      2
     186       2                       0                        00000000D      3
     186             -79       1       0                               0D      4
     514       3                                                00010000D      5
     514                       1       1                               0D      6
     514       4                                                00010000D      7
     514                       1       1                               0D      8
     510       5                                                00010000D      9
     510             -79       1       1                               0D     10
     510       6                                                00010000D     11
     510             -79       1       1                               0D     12
     510       7                                                00010000D     13
     510             -79       1       1                               0D     14
     510       8                                                00010000D     15
     510             -79       1       1                               0D     16
     510       9                                                00010000D     17
     510             -79       1       1                               0D     18
     510      10                                                00010000D     19
     510             -79       1       1                               0D     20
     508      11                                                00010000D     21
     508                       2       1                               0D     22
     508      13                                                00010000D     23
     508                       1       1                               0D     24
     508      14                                                00010000D     25
     508                       1       1                               0D     26
     508      15                                                00010000D     27
     508                       2       1                               0D     28
     508      17                                                00010000D     29
     508                       1       1                               0D     30
     508      18                                                00010000D     31
     508                       1       1                               0D     32
     126      19                                                00010000D     33
     126       0               7       0                               0D     34
     126      26                                                00010000D     35
     126       0               8       0                               0D     36
     126      34                                                00010000D     37
     126       0               4       0                               0D     38
     126      38                                                00010000D     39
     126       0               8       0                               0D     40
     126      46                                                00010000D     41
     126       0               9       0                               0D     42
     126      55                                                00010000D     43
     126       0               7       0                               0D     44
     126      62                                                00010000D     45
     126       0               8       0                               0D     46
     126      70                                                00010000D     47
     126       0               3       0                               0D     48
     126      73                                                00010000D     49
     126       0               8       0                               0D     50
     126      81                                                00010000D     51
     126       0               9       0                               0D     52
     128      90                                                00010000D     53
     128       0     -79      23       0                               0D     54
     128     113                                                00010000D     55
     128       0     -79       7       0                               0D     56
     128     120                                                00010000D     57
     128       0     -79       5       0                               0D     58
     128     125                                                00010000D     59
     128       0     -79      22       0                               0D     60
     128     147                                                00010000D     61
     128       0     -79       7       0                               0D     62
     128     154                                                00010000D     63
     128       0     -79       5       0                               0D     64
     502     159                                                00010000D     65
     502                       3       1                               0D     66
     502     162                                                00010000D     67
     502                       3       1                               0D     68
     504     165                                                00010001D     69
     504                       2       1                               0D     70
     504     167                                                00010001D     71
     504                       2       1                               0D     72
     406     169                                                00000000D     73
     406                       1      15                               0D     74
     406     170                                                00000000D     75
     406                       1      15                               0D     76
     406     171                       0                        00000000D     77
     406                       1       3                               0D     78
     314     172                                                00000200D     79
     314                       1       0                               0D     80
186,5,1,0,0,1,73;                                                      1P      1
186,7,1,0,0,1,75;                                                      3P      2
514,3,9,1,11,1,13,1;                                                   5P      3
514,3,15,1,17,1,19,1;                                                  7P      4
510,53,1,1,21;                                                         9P      5
510,55,1,1,23;                                                        11P      6
510,57,1,1,25;                                                        13P      7
510,59,1,1,27;                                                        15P      8
510,61,1,1,29;                                                        17P      9
510,63,1,1,31;                                                        19P     10
508,6,0,69,1,0,0,0,69,2,0,0,0,69,3,1,0,0,69,4,0,0,0,69,5,0,0,0,       21P     11
69,3,0,0;                                                             21P     12
508,2,0,69,4,1,0,0,69,5,1,0;                                          23P     13
508,2,0,69,1,1,0,0,69,2,1,0;                                          25P     14
508,6,0,71,1,0,0,0,71,2,0,0,0,71,3,1,0,0,71,4,0,0,0,71,5,0,0,0,       27P     15
71,3,0,0;                                                             27P     16
508,2,0,71,4,1,0,0,71,5,1,0;                                          29P     17
508,2,0,71,1,1,0,0,71,2,1,0;                                          31P     18
126,4,2,0,0,0,0,0.,0.,0.,1.5707963267949,1.5707963267949,             33P     19
3.14159265358979,3.14159265358979,3.14159265358979,1.,                33P     20
0.707106781186547,1.,0.707106781186548,1.,375.981104280609,           33P     21
402.592962989501,-3.,375.981104280609,388.712962989501,-3.,           33P     22
362.101104280609,388.712962989501,-3.,348.221104280609,               33P     23
388.712962989501,-3.,348.221104280609,402.592962989501,-3.,0.,        33P     24
3.14159265358979,0.,0.,0.;                                            33P     25
126,4,2,0,0,0,0,3.14159265358979,3.14159265358979,                    35P     26
3.14159265358979,4.71238898038469,4.71238898038469,                   35P     27
6.28318530717959,6.28318530717959,6.28318530717959,1.,                35P     28
0.707106781186548,1.,0.707106781186548,1.,348.221104280609,           35P     29
402.592962989501,-3.,348.221104280609,416.472962989501,-3.,           35P     30
362.101104280609,416.472962989501,-3.,375.981104280609,               35P     31
416.472962989501,-3.,375.981104280609,402.592962989501,-3.,           35P     32
3.14159265358979,6.28318530717959,0.,0.,0.;                           35P     33
126,1,1,0,0,1,0,-0.10806916426513,-0.10806916426513,                  37P     34
0.10806916426513,0.10806916426513,1.,1.,348.221104280609,             37P     35
402.592962989501,-3.,348.221104280609,402.592962989501,0.,            37P     36
-0.10806916426513,0.10806916426513,0.,0.,0.;                          37P     37
126,4,2,0,0,0,0,0.,0.,0.,1.5707963267949,1.5707963267949,             39P     38
3.14159265358979,3.14159265358979,3.14159265358979,1.,                39P     39
0.707106781186547,1.,0.707106781186548,1.,375.981104280609,           39P     40
402.592962989501,0.,375.981104280609,416.472962989501,                39P     41
-1.77635683940025D-15,362.101104280609,416.472962989501,              39P     42
-1.77635683940025D-15,348.221104280609,416.472962989501,              39P     43
-1.77635683940025D-15,348.221104280609,402.592962989501,0.,0.,        39P     44
3.14159265358979,0.,0.,0.;                                            39P     45
126,4,2,0,0,0,0,3.14159265358979,3.14159265358979,                    41P     46
3.14159265358979,4.71238898038469,4.71238898038469,                   41P     47
6.28318530717959,6.28318530717959,6.28318530717959,1.,                41P     48
0.707106781186548,1.,0.707106781186548,1.,348.221104280609,           41P     49
402.592962989501,0.,348.221104280609,388.712962989501,                41P     50
1.99840144432528D-15,362.101104280609,388.712962989501,               41P     51
1.99840144432528D-15,375.981104280609,388.712962989501,               41P     52
1.99840144432528D-15,375.981104280609,402.592962989501,0.,            41P     53
3.14159265358979,6.28318530717959,0.,0.,0.;                           41P     54
126,4,2,0,0,0,0,0.,0.,0.,1.5707963267949,1.5707963267949,             43P     55
3.14159265358979,3.14159265358979,3.14159265358979,1.,                43P     56
0.707106781186548,1.,0.707106781186548,1.,382.53108465497,            43P     57
264.047565480775,-3.,382.53108465497,248.047565480775,-3.,            43P     58
366.53108465497,248.047565480775,-3.,350.53108465497,                 43P     59
248.047565480775,-3.,350.53108465497,264.047565480775,-3.,0.,         43P     60
3.14159265358979,0.,0.,0.;                                            43P     61
126,4,2,0,0,0,0,3.14159265358979,3.14159265358979,                    45P     62
3.14159265358979,4.71238898038469,4.71238898038469,                   45P     63
6.28318530717959,6.28318530717959,6.28318530717959,1.,                45P     64
0.707106781186548,1.,0.707106781186547,1.,350.53108465497,            45P     65
264.047565480775,-3.,350.53108465497,280.047565480775,-3.,            45P     66
366.53108465497,280.047565480775,-3.,382.53108465497,                 45P     67
280.047565480775,-3.,382.53108465497,264.047565480775,-3.,            45P     68
3.14159265358979,6.28318530717959,0.,0.,0.;                           45P     69
126,1,1,0,0,1,0,-0.09375,-0.09375,0.09375,0.09375,1.,1.,              47P     70
350.53108465497,264.047565480775,-3.,350.53108465497,                 47P     71
264.047565480775,0.,-0.09375,0.09375,0.,0.,0.;                        47P     72
126,4,2,0,0,0,0,0.,0.,0.,1.5707963267949,1.5707963267949,             49P     73
3.14159265358979,3.14159265358979,3.14159265358979,1.,                49P     74
0.707106781186548,1.,0.707106781186548,1.,382.53108465497,            49P     75
264.047565480775,0.,382.53108465497,280.047565480775,                 49P     76
-1.99840144432528D-15,366.53108465497,280.047565480775,               49P     77
-1.99840144432528D-15,350.53108465497,280.047565480775,               49P     78
-1.99840144432528D-15,350.53108465497,264.047565480775,0.,0.,         49P     79
3.14159265358979,0.,0.,0.;                                            49P     80
126,4,2,0,0,0,0,3.14159265358979,3.14159265358979,                    51P     81
3.14159265358979,4.71238898038469,4.71238898038469,                   51P     82
6.28318530717959,6.28318530717959,6.28318530717959,1.,                51P     83
0.707106781186548,1.,0.707106781186547,1.,350.53108465497,            51P     84
264.047565480775,0.,350.53108465497,248.047565480775,                 51P     85
2.22044604925031D-15,366.53108465497,248.047565480775,                51P     86
2.22044604925031D-15,382.53108465497,248.047565480775,                51P     87
2.22044604925031D-15,382.53108465497,264.047565480775,0.,             51P     88
3.14159265358979,6.28318530717959,0.,0.,0.;                           51P     89
128,1,8,1,2,0,1,0,0,1,-0.10806916426513,-0.10806916426513,            53P     90
0.10806916426513,0.10806916426513,-3.14159265358979,                  53P     91
-3.14159265358979,-3.14159265358979,-1.5707963267949,                 53P     92
-1.5707963267949,0.,0.,1.5707963267949,1.5707963267949,               53P     93
3.14159265358979,3.14159265358979,3.14159265358979,1.,1.,             53P     94
0.707106781186548,0.707106781186548,1.,1.,0.707106781186548,          53P     95
0.707106781186548,1.,1.,0.707106781186548,0.707106781186548,1.,       53P     96
1.,0.707106781186548,0.707106781186548,1.,1.,348.221104280609,        53P     97
402.592962989501,-3.,348.221104280609,402.592962989501,0.,            53P     98
348.221104280609,416.472962989501,-3.,348.221104280609,               53P     99
416.472962989501,-1.77635683940025D-15,362.101104280609,              53P    100
416.472962989501,-3.,362.101104280609,416.472962989501,               53P    101
-1.77635683940025D-15,375.981104280609,416.472962989501,-3.,          53P    102
375.981104280609,416.472962989501,-1.77635683940025D-15,              53P    103
375.981104280609,402.592962989501,-3.,375.981104280609,               53P    104
402.592962989501,0.,375.981104280609,388.712962989501,-3.,            53P    105
375.981104280609,388.712962989501,1.99840144432528D-15,               53P    106
362.101104280609,388.712962989501,-3.,362.101104280609,               53P    107
388.712962989501,1.99840144432528D-15,348.221104280609,               53P    108
388.712962989501,-3.,348.221104280609,388.712962989501,               53P    109
1.99840144432528D-15,348.221104280609,402.592962989501,-3.,           53P    110
348.221104280609,402.592962989501,0.,-0.10806916426513,               53P    111
0.10806916426513,-3.14159265358979,3.14159265358979;                  53P    112
128,1,1,1,1,0,0,1,0,0,-13.881,-13.881,13.881,13.881,-13.881,          55P    113
-13.881,13.881,13.881,1.,1.,1.,1.,375.982104280609,                   55P    114
416.473962989501,-1.77635683940025D-15,348.220104280608,              55P    115
416.473962989501,-1.77635683940025D-15,375.982104280609,              55P    116
388.711962989501,1.99840144432528D-15,348.220104280608,               55P    117
388.711962989501,1.99840144432528D-15,-13.881,13.881,-13.881,         55P    118
13.881;                                                               55P    119
128,1,1,1,1,0,0,1,0,0,-13.881,-13.881,13.881,13.881,-13.881,          57P    120
-13.881,13.881,13.881,1.,1.,1.,1.,348.220104280608,                   57P    121
416.473962989501,-3.,375.982104280609,416.473962989501,-3.,           57P    122
348.220104280608,388.711962989501,-3.,375.982104280609,               57P    123
388.711962989501,-3.,-13.881,13.881,-13.881,13.881;                   57P    124
128,1,8,1,2,0,1,0,0,1,-0.09375,-0.09375,0.09375,0.09375,              59P    125
-3.14159265358979,-3.14159265358979,-3.14159265358979,                59P    126
-1.5707963267949,-1.5707963267949,0.,0.,1.5707963267949,              59P    127
1.5707963267949,3.14159265358979,3.14159265358979,                    59P    128
3.14159265358979,1.,1.,0.707106781186548,0.707106781186548,1.,        59P    129
1.,0.707106781186548,0.707106781186548,1.,1.,0.707106781186548,       59P    130
0.707106781186548,1.,1.,0.707106781186548,0.707106781186548,1.,       59P    131
1.,350.53108465497,264.047565480775,-3.,350.53108465497,              59P    132
264.047565480775,0.,350.53108465497,280.047565480775,-3.,             59P    133
350.53108465497,280.047565480775,-1.99840144432528D-15,               59P    134
366.53108465497,280.047565480775,-3.,366.53108465497,                 59P    135
280.047565480775,-1.99840144432528D-15,382.53108465497,               59P    136
280.047565480775,-3.,382.53108465497,280.047565480775,                59P    137
-1.99840144432528D-15,382.53108465497,264.047565480775,-3.,           59P    138
382.53108465497,264.047565480775,0.,382.53108465497,                  59P    139
248.047565480775,-3.,382.53108465497,248.047565480775,                59P    140
2.22044604925031D-15,366.53108465497,248.047565480775,-3.,            59P    141
366.53108465497,248.047565480775,2.22044604925031D-15,                59P    142
350.53108465497,248.047565480775,-3.,350.53108465497,                 59P    143
248.047565480775,2.22044604925031D-15,350.53108465497,                59P    144
264.047565480775,-3.,350.53108465497,264.047565480775,0.,             59P    145
-0.09375,0.09375,-3.14159265358979,3.14159265358979;                  59P    146
128,1,1,1,1,0,0,1,0,0,-16.001,-16.001,16.001,16.001,-16.001,          61P    147
-16.001,16.001,16.001,1.,1.,1.,1.,382.53208465497,                    61P    148
280.048565480775,-1.99840144432528D-15,350.53008465497,               61P    149
280.048565480775,-1.99840144432528D-15,382.53208465497,               61P    150
248.046565480775,2.22044604925031D-15,350.53008465497,                61P    151
248.046565480775,2.22044604925031D-15,-16.001,16.001,-16.001,         61P    152
16.001;                                                               61P    153
128,1,1,1,1,0,0,1,0,0,-16.001,-16.001,16.001,16.001,-16.001,          63P    154
-16.001,16.001,16.001,1.,1.,1.,1.,350.53008465497,                    63P    155
280.048565480775,-3.,382.53208465497,280.048565480775,-3.,            63P    156
350.53008465497,248.046565480775,-3.,382.53208465497,                 63P    157
248.046565480775,-3.,-16.001,16.001,-16.001,16.001;                   63P    158
502,4,375.981104280609,402.592962989501,-3.,348.221104280609,         65P    159
402.592962989501,-3.,348.221104280609,402.592962989501,0.,            65P    160
375.981104280609,402.592962989501,0.;                                 65P    161
502,4,382.53108465497,264.047565480775,-3.,350.53108465497,           67P    162
264.047565480775,-3.,350.53108465497,264.047565480775,0.,             67P    163
382.53108465497,264.047565480775,0.;                                  67P    164
504,5,33,65,1,65,2,35,65,2,65,1,37,65,2,65,3,39,65,4,65,3,41,65,      69P    165
3,65,4;                                                               69P    166
504,5,43,67,1,67,2,45,67,2,67,1,47,67,2,67,3,49,67,4,67,3,51,67,      71P    167
3,67,4;                                                               71P    168
406,1,2H5A;                                                           73P    169
406,1,2H5E;                                                           75P    170
406,2,0,1H0;                                                          77P    171
314,76.078431372549,80.7843137254902,83.921568627451,;                79P    172
S      1G      4D     80P    172                                        T      1
